<?xml version="1.0" encoding="utf-8"?>
<!-- Generator: Adobe Illustrator 17.0.0, SVG Export Plug-In . SVG Version: 6.00 Build 0)  -->
<!DOCTYPE svg PUBLIC "-//W3C//DTD SVG 1.1//EN" "http://www.w3.org/Graphics/SVG/1.1/DTD/svg11.dtd">
<svg version="1.1" id="Layer_3" xmlns="http://www.w3.org/2000/svg" xmlns:xlink="http://www.w3.org/1999/xlink" x="0px" y="0px"
	 width="588.106px" height="889.533px" viewBox="0 0 588.106 889.533" enable-background="new 0 0 588.106 889.533"
	 xml:space="preserve">
<g>
	<path fill="#F2C9A3" stroke="#F2C9A3" stroke-width="2" stroke-miterlimit="10" d="M323.548,391.566
		c0,0,19.956,11.983,123.673,168.475c0,0,1.867,4.12-0.355,8.06c0,0-4.822,4.835-5.066,10.376c0,0-128.994,114.943-183.436,153.426
		c0,0-25.399,6.956-23.931,54.969c0,0-5.132,23.496,6.045,13.894c0,0,10.6-8.113,18.911,0.833c0,0,9.845,9.014,6.955-6.76
		c0,0,1.088-13.075,7.822-14.797c0,0,5.733-2.271,9.8-1.587c0,0,11.156,2.511-26.646-34.486c0,0,119.639-88.605,200.747-162.758
		c0,0,21.377-8.648,1.243-28.209c0,0-89.449-131.636-90.982-131.704c0,0-7.43-20.516-4.694-34.528L323.548,391.566z"/>
	<path fill="#F7D7B6" stroke="#F7D7B6" stroke-width="2" stroke-miterlimit="10" d="M375.128,394.406
		c0,0,8.754-6.541,11.382,113.215c0,0,1.801,90.456,1.178,104.588c0,0-5.353,19.198,4.267,31.004c0,0,0.622,170.948,0.618,171.32
		c0,0-0.135,15.263-20.639,23.799c0,0-17.435,9.226-25.686,11.083c0,0-17.002,2.305,17.798,17.997c0,0,2.97,2.907,2.274,18.701
		c0,0-1.283,9.938,27.221-10.461c0,0,13.238-6.357,26.365-3.835c0,0,3.08,0.413,7.713,3.949c0,0,7.383,5.045,6.245-20.269
		c0,0-1.076-7.543-13.373-16.136l-15.903-16.248l-2.061-183.322c0,0,17.332-16.171,1.991-32.394c0,0-10.19-190.621,5.98-218.781
		L375.128,394.406z"/>
	<g>
		<path fill="#EE6446" d="M45.004,32.243c0,0,12.45-33.675,50.755-31.987c0,0,54.245-7.516,67.77,58.825
			c0,0,14.475,44.769-9.988,102.231c0,0-33.504,55.263-32.274,89.541c0,0-3.645,61.982,22.09,79.328
			c0,0,44.095,15.453,53.768-38.159c0,0,20.339-67.551,66.455-77.227c0,0-9.596,10.385-12.649,17.455
			c0,0,31.285-25.64,44.014-24.178c0,0-8.604,8.627-10.547,11.243c0,0,27.201-15.913,38.106-14.532c0,0-7.653,7.768-8.684,10.425
			c0,0,102.105-36.028,274.286,141.778c0,0-45.166-32.612-49.726-32.813c0,0,44.612,45.196,48.657,57.083l-15.188-7.874
			l7.693,12.047l-18.677-11.631l3.173,10.947c0,0-28.353-20.163-35.609-21.383c0,0,4.045,11.886,3.887,15.482
			c0,0-23.515-26.254-28.076-26.455c0,0-18.478,4.589-27.281,17.711c0,0-17.05,13.659-28.074,14.974c0,0-32.197,25.6-48.851,30.27
			c0,0-17.487,2.832-23.713-1.045c0,0-49.17-3.968-76.174-13.264c0,0-15.346-4.279-25.576-0.227c0,0-60.548,46.866-163.926-12.628
			c0,0-81.211-44.107-28.716-177.788c0,0,42.069-62.991,41.788-139.556c0,0-1.626-21.997-12.736-9.753
			c0,0-13.115,13.313-38.835,10.636c0,0-11.722,8.358-18.5,11.146L45.004,32.243z"/>
		<path fill="#FFFFFF" d="M45.506,32.077c0,0,5.365,7.645,17.928,0.79c0,0,17.487-8.633,14.484,7.762
			c0,0-7.728,13.622-15.256,22.694c0,0-8.222,11.891-6.519,18.52c0,0-26.522,13.079-31.066,19.148c0,0-4.163,10.36-3.555,28.909
			c0,0-3.292,22.937-18.235-26.165c0,0-10.322-37.499,8.094-47.801L45.506,32.077z"/>
		<path fill="#624A36" d="M11.381,55.934c0,0-6.2,26.312,23.345,37.661c0,0-11.81,5.538-12.687,21.739c0,0,0.589,20.15-1.814,20.005
			c0,0-4.701,2.667-9.727-11.005C10.498,124.334-13.701,73.47,11.381,55.934z"/>
		<path d="M74.904,35.941c0.648,1.727-1.026,3.927-3.739,4.912c-2.713,0.986-5.437,0.384-6.085-1.343
			c-0.648-1.727,1.026-3.927,3.739-4.912C71.532,33.613,74.256,34.214,74.904,35.941z"/>
	</g>
</g>
</svg>
